<mxfile host="app.diagrams.net" modified="2023-05-04T07:50:53.606Z" agent="Mozilla/5.0 (Windows NT 10.0; Win64; x64) AppleWebKit/537.36 (KHTML, like Gecko) Chrome/112.0.0.0 Safari/537.36" etag="xRVRiPk7ubQEYGJ4kkwN" version="21.2.7" type="device">
  <diagram name="PÃ¡gina-1" id="-0BhB1doRgvjunQwrgJz">
    <mxGraphModel dx="1861" dy="1909" grid="1" gridSize="10" guides="1" tooltips="1" connect="1" arrows="1" fold="1" page="1" pageScale="1" pageWidth="827" pageHeight="1169" math="0" shadow="0">
      <root>
        <mxCell id="0" />
        <mxCell id="1" parent="0" />
        <mxCell id="Z21iER2l8opAM6BL78H--43" style="edgeStyle=none;rounded=0;orthogonalLoop=1;jettySize=auto;html=1;exitX=1;exitY=0.5;exitDx=0;exitDy=0;entryX=0;entryY=0.5;entryDx=0;entryDy=0;" parent="1" source="Z21iER2l8opAM6BL78H--23" target="Z21iER2l8opAM6BL78H--42" edge="1">
          <mxGeometry relative="1" as="geometry" />
        </mxCell>
        <mxCell id="Z21iER2l8opAM6BL78H--62" style="edgeStyle=none;rounded=0;orthogonalLoop=1;jettySize=auto;html=1;exitX=0;exitY=0.5;exitDx=0;exitDy=0;entryX=1;entryY=0.5;entryDx=0;entryDy=0;" parent="1" source="Z21iER2l8opAM6BL78H--23" target="Z21iER2l8opAM6BL78H--52" edge="1">
          <mxGeometry relative="1" as="geometry" />
        </mxCell>
        <mxCell id="Z21iER2l8opAM6BL78H--76" style="edgeStyle=none;rounded=0;orthogonalLoop=1;jettySize=auto;html=1;exitX=0.5;exitY=1;exitDx=0;exitDy=0;entryX=0.5;entryY=0;entryDx=0;entryDy=0;" parent="1" source="Z21iER2l8opAM6BL78H--23" target="Z21iER2l8opAM6BL78H--75" edge="1">
          <mxGeometry relative="1" as="geometry" />
        </mxCell>
        <mxCell id="Z21iER2l8opAM6BL78H--23" value="CUENTA" style="whiteSpace=wrap;html=1;align=center;" parent="1" vertex="1">
          <mxGeometry x="224" y="410" width="100" height="40" as="geometry" />
        </mxCell>
        <mxCell id="Z21iER2l8opAM6BL78H--24" value="PERSONA" style="whiteSpace=wrap;html=1;align=center;" parent="1" vertex="1">
          <mxGeometry x="314" y="-60" width="100" height="40" as="geometry" />
        </mxCell>
        <mxCell id="Z21iER2l8opAM6BL78H--30" style="edgeStyle=none;rounded=0;orthogonalLoop=1;jettySize=auto;html=1;exitX=0.5;exitY=1;exitDx=0;exitDy=0;entryX=0.36;entryY=-0.05;entryDx=0;entryDy=0;entryPerimeter=0;" parent="1" source="Z21iER2l8opAM6BL78H--25" target="Z21iER2l8opAM6BL78H--23" edge="1">
          <mxGeometry relative="1" as="geometry" />
        </mxCell>
        <mxCell id="fPt3tUHfLMFWtH_JmtZv-11" style="edgeStyle=none;rounded=0;orthogonalLoop=1;jettySize=auto;html=1;exitX=0;exitY=0;exitDx=0;exitDy=0;entryX=0.5;entryY=1;entryDx=0;entryDy=0;" parent="1" source="Z21iER2l8opAM6BL78H--25" target="Z21iER2l8opAM6BL78H--28" edge="1">
          <mxGeometry relative="1" as="geometry" />
        </mxCell>
        <mxCell id="Z21iER2l8opAM6BL78H--25" value="Pertenece" style="shape=rhombus;perimeter=rhombusPerimeter;whiteSpace=wrap;html=1;align=center;" parent="1" vertex="1">
          <mxGeometry x="160" y="240" width="120" height="60" as="geometry" />
        </mxCell>
        <mxCell id="fPt3tUHfLMFWtH_JmtZv-15" style="edgeStyle=none;rounded=0;orthogonalLoop=1;jettySize=auto;html=1;exitX=0.75;exitY=1;exitDx=0;exitDy=0;entryX=0;entryY=0;entryDx=0;entryDy=0;" parent="1" source="Z21iER2l8opAM6BL78H--27" target="Z21iER2l8opAM6BL78H--45" edge="1">
          <mxGeometry relative="1" as="geometry" />
        </mxCell>
        <mxCell id="Z21iER2l8opAM6BL78H--27" value="EMPLEADO" style="whiteSpace=wrap;html=1;align=center;" parent="1" vertex="1">
          <mxGeometry x="470" y="60" width="100" height="40" as="geometry" />
        </mxCell>
        <mxCell id="fPt3tUHfLMFWtH_JmtZv-19" style="edgeStyle=none;rounded=0;orthogonalLoop=1;jettySize=auto;html=1;exitX=1;exitY=1;exitDx=0;exitDy=0;entryX=0;entryY=0;entryDx=0;entryDy=0;" parent="1" source="Z21iER2l8opAM6BL78H--28" target="Z21iER2l8opAM6BL78H--68" edge="1">
          <mxGeometry relative="1" as="geometry" />
        </mxCell>
        <mxCell id="Z21iER2l8opAM6BL78H--28" value="CLIENTE" style="whiteSpace=wrap;html=1;align=center;" parent="1" vertex="1">
          <mxGeometry x="194" y="60" width="100" height="40" as="geometry" />
        </mxCell>
        <mxCell id="Z21iER2l8opAM6BL78H--41" value="SUCURSAL" style="whiteSpace=wrap;html=1;align=center;" parent="1" vertex="1">
          <mxGeometry x="680" y="340" width="100" height="40" as="geometry" />
        </mxCell>
        <mxCell id="Z21iER2l8opAM6BL78H--44" style="edgeStyle=none;rounded=0;orthogonalLoop=1;jettySize=auto;html=1;exitX=1;exitY=0.5;exitDx=0;exitDy=0;entryX=0;entryY=0.5;entryDx=0;entryDy=0;" parent="1" source="Z21iER2l8opAM6BL78H--42" target="Z21iER2l8opAM6BL78H--41" edge="1">
          <mxGeometry relative="1" as="geometry" />
        </mxCell>
        <mxCell id="Z21iER2l8opAM6BL78H--42" value="Asociada" style="shape=rhombus;perimeter=rhombusPerimeter;whiteSpace=wrap;html=1;align=center;" parent="1" vertex="1">
          <mxGeometry x="480" y="400" width="120" height="60" as="geometry" />
        </mxCell>
        <mxCell id="Z21iER2l8opAM6BL78H--122" style="edgeStyle=none;rounded=0;orthogonalLoop=1;jettySize=auto;html=1;exitX=0.5;exitY=1;exitDx=0;exitDy=0;entryX=0.19;entryY=0;entryDx=0;entryDy=0;entryPerimeter=0;" parent="1" source="Z21iER2l8opAM6BL78H--45" target="Z21iER2l8opAM6BL78H--41" edge="1">
          <mxGeometry relative="1" as="geometry" />
        </mxCell>
        <mxCell id="Z21iER2l8opAM6BL78H--45" value="Trabaja" style="shape=rhombus;perimeter=rhombusPerimeter;whiteSpace=wrap;html=1;align=center;" parent="1" vertex="1">
          <mxGeometry x="610" y="150" width="100" height="60" as="geometry" />
        </mxCell>
        <mxCell id="Z21iER2l8opAM6BL78H--63" style="edgeStyle=none;rounded=0;orthogonalLoop=1;jettySize=auto;html=1;exitX=0;exitY=0.5;exitDx=0;exitDy=0;entryX=1;entryY=0.5;entryDx=0;entryDy=0;" parent="1" source="Z21iER2l8opAM6BL78H--52" target="Z21iER2l8opAM6BL78H--53" edge="1">
          <mxGeometry relative="1" as="geometry" />
        </mxCell>
        <mxCell id="Z21iER2l8opAM6BL78H--52" value="Envia" style="shape=rhombus;perimeter=rhombusPerimeter;whiteSpace=wrap;html=1;align=center;" parent="1" vertex="1">
          <mxGeometry x="40" y="360" width="120" height="60" as="geometry" />
        </mxCell>
        <mxCell id="MpyWfBTOZcTDJk8wL0Xl-13" style="edgeStyle=none;rounded=0;orthogonalLoop=1;jettySize=auto;html=1;exitX=0.75;exitY=1;exitDx=0;exitDy=0;entryX=0;entryY=0;entryDx=0;entryDy=0;" parent="1" source="Z21iER2l8opAM6BL78H--53" target="MpyWfBTOZcTDJk8wL0Xl-1" edge="1">
          <mxGeometry relative="1" as="geometry" />
        </mxCell>
        <mxCell id="Z21iER2l8opAM6BL78H--53" value="TRANSACCION" style="whiteSpace=wrap;html=1;align=center;" parent="1" vertex="1">
          <mxGeometry x="-100" y="350" width="100" height="40" as="geometry" />
        </mxCell>
        <mxCell id="fPt3tUHfLMFWtH_JmtZv-31" style="edgeStyle=none;rounded=0;orthogonalLoop=1;jettySize=auto;html=1;exitX=0.25;exitY=1;exitDx=0;exitDy=0;entryX=1;entryY=0;entryDx=0;entryDy=0;" parent="1" source="Z21iER2l8opAM6BL78H--65" target="Z21iER2l8opAM6BL78H--123" edge="1">
          <mxGeometry relative="1" as="geometry" />
        </mxCell>
        <mxCell id="Z21iER2l8opAM6BL78H--65" value="MOVIMIENTOS" style="whiteSpace=wrap;html=1;align=center;" parent="1" vertex="1">
          <mxGeometry x="470" y="215" width="100" height="40" as="geometry" />
        </mxCell>
        <mxCell id="fPt3tUHfLMFWtH_JmtZv-24" style="edgeStyle=none;rounded=0;orthogonalLoop=1;jettySize=auto;html=1;exitX=1;exitY=1;exitDx=0;exitDy=0;entryX=0;entryY=0.25;entryDx=0;entryDy=0;" parent="1" source="Z21iER2l8opAM6BL78H--68" target="Z21iER2l8opAM6BL78H--65" edge="1">
          <mxGeometry relative="1" as="geometry" />
        </mxCell>
        <mxCell id="Z21iER2l8opAM6BL78H--68" value="Realiza" style="shape=rhombus;perimeter=rhombusPerimeter;whiteSpace=wrap;html=1;align=center;" parent="1" vertex="1">
          <mxGeometry x="304" y="150" width="120" height="60" as="geometry" />
        </mxCell>
        <mxCell id="fPt3tUHfLMFWtH_JmtZv-30" style="edgeStyle=none;rounded=0;orthogonalLoop=1;jettySize=auto;html=1;exitX=0.5;exitY=1;exitDx=0;exitDy=0;entryX=0.5;entryY=0;entryDx=0;entryDy=0;" parent="1" source="Z21iER2l8opAM6BL78H--74" target="Z21iER2l8opAM6BL78H--65" edge="1">
          <mxGeometry relative="1" as="geometry" />
        </mxCell>
        <mxCell id="Z21iER2l8opAM6BL78H--74" value="idMovimiento" style="ellipse;whiteSpace=wrap;html=1;align=center;fontStyle=4;" parent="1" vertex="1">
          <mxGeometry x="480" y="120" width="80" height="40" as="geometry" />
        </mxCell>
        <mxCell id="Z21iER2l8opAM6BL78H--75" value="IdCuenta" style="ellipse;whiteSpace=wrap;html=1;align=center;fontStyle=4;" parent="1" vertex="1">
          <mxGeometry x="220" y="500" width="100" height="40" as="geometry" />
        </mxCell>
        <mxCell id="Z21iER2l8opAM6BL78H--79" style="edgeStyle=none;rounded=0;orthogonalLoop=1;jettySize=auto;html=1;exitX=0;exitY=0.5;exitDx=0;exitDy=0;entryX=1;entryY=0.5;entryDx=0;entryDy=0;" parent="1" source="Z21iER2l8opAM6BL78H--78" target="Z21iER2l8opAM6BL78H--41" edge="1">
          <mxGeometry relative="1" as="geometry" />
        </mxCell>
        <mxCell id="Z21iER2l8opAM6BL78H--78" value="IdSurcursal&lt;br&gt;" style="ellipse;whiteSpace=wrap;html=1;align=center;fontStyle=4;" parent="1" vertex="1">
          <mxGeometry x="830" y="360" width="100" height="40" as="geometry" />
        </mxCell>
        <mxCell id="Z21iER2l8opAM6BL78H--86" style="edgeStyle=none;rounded=0;orthogonalLoop=1;jettySize=auto;html=1;exitX=1;exitY=0.5;exitDx=0;exitDy=0;entryX=0;entryY=0.25;entryDx=0;entryDy=0;" parent="1" source="Z21iER2l8opAM6BL78H--80" target="Z21iER2l8opAM6BL78H--24" edge="1">
          <mxGeometry relative="1" as="geometry" />
        </mxCell>
        <mxCell id="Z21iER2l8opAM6BL78H--80" value="Nombre" style="ellipse;whiteSpace=wrap;html=1;align=center;" parent="1" vertex="1">
          <mxGeometry x="200" y="-130" width="100" height="40" as="geometry" />
        </mxCell>
        <mxCell id="Z21iER2l8opAM6BL78H--85" style="edgeStyle=none;rounded=0;orthogonalLoop=1;jettySize=auto;html=1;exitX=0.5;exitY=1;exitDx=0;exitDy=0;entryX=0.4;entryY=-0.075;entryDx=0;entryDy=0;entryPerimeter=0;" parent="1" source="Z21iER2l8opAM6BL78H--82" target="Z21iER2l8opAM6BL78H--28" edge="1">
          <mxGeometry relative="1" as="geometry" />
        </mxCell>
        <mxCell id="Z21iER2l8opAM6BL78H--82" value="IdCliente" style="ellipse;whiteSpace=wrap;html=1;align=center;fontStyle=4;" parent="1" vertex="1">
          <mxGeometry x="94" y="-10" width="100" height="40" as="geometry" />
        </mxCell>
        <mxCell id="Z21iER2l8opAM6BL78H--84" style="edgeStyle=none;rounded=0;orthogonalLoop=1;jettySize=auto;html=1;exitX=0.5;exitY=1;exitDx=0;exitDy=0;" parent="1" source="Z21iER2l8opAM6BL78H--83" target="Z21iER2l8opAM6BL78H--27" edge="1">
          <mxGeometry relative="1" as="geometry" />
        </mxCell>
        <mxCell id="Z21iER2l8opAM6BL78H--83" value="IdEmpleado" style="ellipse;whiteSpace=wrap;html=1;align=center;fontStyle=4;" parent="1" vertex="1">
          <mxGeometry x="630" y="-10" width="100" height="40" as="geometry" />
        </mxCell>
        <mxCell id="Z21iER2l8opAM6BL78H--88" style="edgeStyle=none;rounded=0;orthogonalLoop=1;jettySize=auto;html=1;exitX=1;exitY=0.5;exitDx=0;exitDy=0;entryX=0;entryY=1;entryDx=0;entryDy=0;" parent="1" source="Z21iER2l8opAM6BL78H--87" target="Z21iER2l8opAM6BL78H--24" edge="1">
          <mxGeometry relative="1" as="geometry" />
        </mxCell>
        <mxCell id="Z21iER2l8opAM6BL78H--87" value="Apellido" style="ellipse;whiteSpace=wrap;html=1;align=center;" parent="1" vertex="1">
          <mxGeometry x="194" y="-60" width="100" height="40" as="geometry" />
        </mxCell>
        <mxCell id="Z21iER2l8opAM6BL78H--90" style="edgeStyle=none;rounded=0;orthogonalLoop=1;jettySize=auto;html=1;exitX=0;exitY=0.5;exitDx=0;exitDy=0;entryX=1;entryY=0.5;entryDx=0;entryDy=0;" parent="1" source="Z21iER2l8opAM6BL78H--89" target="Z21iER2l8opAM6BL78H--24" edge="1">
          <mxGeometry relative="1" as="geometry" />
        </mxCell>
        <mxCell id="Z21iER2l8opAM6BL78H--89" value="Direccion" style="ellipse;whiteSpace=wrap;html=1;align=center;" parent="1" vertex="1">
          <mxGeometry x="490" y="-60" width="100" height="40" as="geometry" />
        </mxCell>
        <mxCell id="Z21iER2l8opAM6BL78H--92" style="edgeStyle=none;rounded=0;orthogonalLoop=1;jettySize=auto;html=1;exitX=0;exitY=1;exitDx=0;exitDy=0;entryX=1;entryY=0;entryDx=0;entryDy=0;" parent="1" target="Z21iER2l8opAM6BL78H--24" edge="1">
          <mxGeometry relative="1" as="geometry">
            <mxPoint x="468.8544793961855" y="-85.7744321365517" as="sourcePoint" />
          </mxGeometry>
        </mxCell>
        <mxCell id="MpyWfBTOZcTDJk8wL0Xl-23" style="edgeStyle=none;rounded=0;orthogonalLoop=1;jettySize=auto;html=1;exitX=0.5;exitY=0;exitDx=0;exitDy=0;entryX=0.94;entryY=1;entryDx=0;entryDy=0;entryPerimeter=0;" parent="1" source="Z21iER2l8opAM6BL78H--98" target="Z21iER2l8opAM6BL78H--65" edge="1">
          <mxGeometry relative="1" as="geometry" />
        </mxCell>
        <mxCell id="Z21iER2l8opAM6BL78H--98" value="FechaMovimiento" style="ellipse;whiteSpace=wrap;html=1;align=center;" parent="1" vertex="1">
          <mxGeometry x="540" y="280" width="100" height="40" as="geometry" />
        </mxCell>
        <mxCell id="Z21iER2l8opAM6BL78H--101" style="edgeStyle=none;rounded=0;orthogonalLoop=1;jettySize=auto;html=1;exitX=0.5;exitY=1;exitDx=0;exitDy=0;entryX=0.4;entryY=0;entryDx=0;entryDy=0;entryPerimeter=0;" parent="1" source="Z21iER2l8opAM6BL78H--100" target="Z21iER2l8opAM6BL78H--53" edge="1">
          <mxGeometry relative="1" as="geometry" />
        </mxCell>
        <mxCell id="Z21iER2l8opAM6BL78H--100" value="idTransaccion" style="ellipse;whiteSpace=wrap;html=1;align=center;" parent="1" vertex="1">
          <mxGeometry x="-120" y="270" width="100" height="40" as="geometry" />
        </mxCell>
        <mxCell id="Z21iER2l8opAM6BL78H--103" style="edgeStyle=none;rounded=0;orthogonalLoop=1;jettySize=auto;html=1;exitX=0;exitY=0;exitDx=0;exitDy=0;entryX=1;entryY=1;entryDx=0;entryDy=0;" parent="1" source="Z21iER2l8opAM6BL78H--102" target="Z21iER2l8opAM6BL78H--23" edge="1">
          <mxGeometry relative="1" as="geometry" />
        </mxCell>
        <mxCell id="Z21iER2l8opAM6BL78H--102" value="IBAN" style="ellipse;whiteSpace=wrap;html=1;align=center;" parent="1" vertex="1">
          <mxGeometry x="354" y="500" width="100" height="40" as="geometry" />
        </mxCell>
        <mxCell id="MpyWfBTOZcTDJk8wL0Xl-24" style="edgeStyle=none;rounded=0;orthogonalLoop=1;jettySize=auto;html=1;exitX=1;exitY=0.5;exitDx=0;exitDy=0;entryX=0;entryY=0.25;entryDx=0;entryDy=0;" parent="1" source="Z21iER2l8opAM6BL78H--104" target="Z21iER2l8opAM6BL78H--53" edge="1">
          <mxGeometry relative="1" as="geometry" />
        </mxCell>
        <mxCell id="Z21iER2l8opAM6BL78H--104" value="Fecha" style="ellipse;whiteSpace=wrap;html=1;align=center;" parent="1" vertex="1">
          <mxGeometry x="-240" y="330" width="100" height="40" as="geometry" />
        </mxCell>
        <mxCell id="Z21iER2l8opAM6BL78H--110" style="edgeStyle=none;rounded=0;orthogonalLoop=1;jettySize=auto;html=1;exitX=1;exitY=0;exitDx=0;exitDy=0;entryX=0.07;entryY=1.05;entryDx=0;entryDy=0;entryPerimeter=0;" parent="1" source="Z21iER2l8opAM6BL78H--109" target="Z21iER2l8opAM6BL78H--53" edge="1">
          <mxGeometry relative="1" as="geometry" />
        </mxCell>
        <mxCell id="Z21iER2l8opAM6BL78H--109" value="Cantidad" style="ellipse;whiteSpace=wrap;html=1;align=center;" parent="1" vertex="1">
          <mxGeometry x="-170" y="415" width="80" height="40" as="geometry" />
        </mxCell>
        <mxCell id="Z21iER2l8opAM6BL78H--118" style="edgeStyle=none;rounded=0;orthogonalLoop=1;jettySize=auto;html=1;exitX=0;exitY=0;exitDx=0;exitDy=0;entryX=1;entryY=1;entryDx=0;entryDy=0;" parent="1" source="Z21iER2l8opAM6BL78H--117" target="Z21iER2l8opAM6BL78H--41" edge="1">
          <mxGeometry relative="1" as="geometry" />
        </mxCell>
        <mxCell id="Z21iER2l8opAM6BL78H--117" value="Telefono" style="ellipse;shape=doubleEllipse;margin=3;whiteSpace=wrap;html=1;align=center;" parent="1" vertex="1">
          <mxGeometry x="800" y="420" width="100" height="40" as="geometry" />
        </mxCell>
        <mxCell id="fPt3tUHfLMFWtH_JmtZv-29" style="edgeStyle=none;rounded=0;orthogonalLoop=1;jettySize=auto;html=1;exitX=0.5;exitY=1;exitDx=0;exitDy=0;entryX=1;entryY=0;entryDx=0;entryDy=0;" parent="1" source="Z21iER2l8opAM6BL78H--119" target="Z21iER2l8opAM6BL78H--65" edge="1">
          <mxGeometry relative="1" as="geometry" />
        </mxCell>
        <mxCell id="Z21iER2l8opAM6BL78H--119" value="Cantidad" style="ellipse;whiteSpace=wrap;html=1;align=center;" parent="1" vertex="1">
          <mxGeometry x="540" y="170" width="70" height="30" as="geometry" />
        </mxCell>
        <mxCell id="MpyWfBTOZcTDJk8wL0Xl-4" style="rounded=0;orthogonalLoop=1;jettySize=auto;html=1;" parent="1" source="Z21iER2l8opAM6BL78H--123" target="Z21iER2l8opAM6BL78H--23" edge="1">
          <mxGeometry relative="1" as="geometry" />
        </mxCell>
        <mxCell id="Z21iER2l8opAM6BL78H--123" value="Registra" style="shape=rhombus;perimeter=rhombusPerimeter;whiteSpace=wrap;html=1;align=center;" parent="1" vertex="1">
          <mxGeometry x="353.5" y="300" width="120" height="60" as="geometry" />
        </mxCell>
        <mxCell id="avsYNweENjTZ45GTGMWI-4" style="edgeStyle=none;rounded=0;orthogonalLoop=1;jettySize=auto;html=1;exitX=0.25;exitY=1;exitDx=0;exitDy=0;entryX=0.608;entryY=0.133;entryDx=0;entryDy=0;entryPerimeter=0;" parent="1" source="avsYNweENjTZ45GTGMWI-1" target="avsYNweENjTZ45GTGMWI-2" edge="1">
          <mxGeometry relative="1" as="geometry" />
        </mxCell>
        <mxCell id="avsYNweENjTZ45GTGMWI-1" value="BANCO" style="whiteSpace=wrap;html=1;align=center;" parent="1" vertex="1">
          <mxGeometry x="820" y="100" width="100" height="40" as="geometry" />
        </mxCell>
        <mxCell id="avsYNweENjTZ45GTGMWI-5" style="edgeStyle=none;rounded=0;orthogonalLoop=1;jettySize=auto;html=1;exitX=0;exitY=1;exitDx=0;exitDy=0;entryX=0.5;entryY=0;entryDx=0;entryDy=0;" parent="1" source="avsYNweENjTZ45GTGMWI-2" target="Z21iER2l8opAM6BL78H--41" edge="1">
          <mxGeometry relative="1" as="geometry" />
        </mxCell>
        <mxCell id="avsYNweENjTZ45GTGMWI-2" value="Tiene" style="shape=rhombus;perimeter=rhombusPerimeter;whiteSpace=wrap;html=1;align=center;" parent="1" vertex="1">
          <mxGeometry x="750" y="200" width="120" height="60" as="geometry" />
        </mxCell>
        <mxCell id="avsYNweENjTZ45GTGMWI-7" style="edgeStyle=none;rounded=0;orthogonalLoop=1;jettySize=auto;html=1;exitX=0;exitY=0.5;exitDx=0;exitDy=0;" parent="1" source="avsYNweENjTZ45GTGMWI-6" target="avsYNweENjTZ45GTGMWI-1" edge="1">
          <mxGeometry relative="1" as="geometry" />
        </mxCell>
        <mxCell id="avsYNweENjTZ45GTGMWI-6" value="CIF" style="ellipse;whiteSpace=wrap;html=1;align=center;fontStyle=4;" parent="1" vertex="1">
          <mxGeometry x="960" y="80" width="100" height="40" as="geometry" />
        </mxCell>
        <mxCell id="avsYNweENjTZ45GTGMWI-10" style="edgeStyle=none;rounded=0;orthogonalLoop=1;jettySize=auto;html=1;exitX=0.5;exitY=0;exitDx=0;exitDy=0;entryX=0.75;entryY=1;entryDx=0;entryDy=0;" parent="1" source="avsYNweENjTZ45GTGMWI-8" target="avsYNweENjTZ45GTGMWI-1" edge="1">
          <mxGeometry relative="1" as="geometry" />
        </mxCell>
        <mxCell id="avsYNweENjTZ45GTGMWI-8" value="Nombre" style="ellipse;whiteSpace=wrap;html=1;align=center;" parent="1" vertex="1">
          <mxGeometry x="940" y="180" width="100" height="40" as="geometry" />
        </mxCell>
        <mxCell id="avsYNweENjTZ45GTGMWI-9" style="edgeStyle=none;rounded=0;orthogonalLoop=1;jettySize=auto;html=1;exitX=0.5;exitY=1;exitDx=0;exitDy=0;" parent="1" source="avsYNweENjTZ45GTGMWI-8" target="avsYNweENjTZ45GTGMWI-8" edge="1">
          <mxGeometry relative="1" as="geometry" />
        </mxCell>
        <mxCell id="fPt3tUHfLMFWtH_JmtZv-8" style="edgeStyle=none;rounded=0;orthogonalLoop=1;jettySize=auto;html=1;exitX=0;exitY=1;exitDx=0;exitDy=0;entryX=0.63;entryY=-0.022;entryDx=0;entryDy=0;entryPerimeter=0;" parent="1" source="fPt3tUHfLMFWtH_JmtZv-7" target="Z21iER2l8opAM6BL78H--28" edge="1">
          <mxGeometry relative="1" as="geometry" />
        </mxCell>
        <mxCell id="fPt3tUHfLMFWtH_JmtZv-9" style="edgeStyle=none;rounded=0;orthogonalLoop=1;jettySize=auto;html=1;exitX=1;exitY=1;exitDx=0;exitDy=0;entryX=0.371;entryY=-0.051;entryDx=0;entryDy=0;entryPerimeter=0;" parent="1" source="fPt3tUHfLMFWtH_JmtZv-7" target="Z21iER2l8opAM6BL78H--27" edge="1">
          <mxGeometry relative="1" as="geometry" />
        </mxCell>
        <mxCell id="fPt3tUHfLMFWtH_JmtZv-7" value="" style="ellipse;whiteSpace=wrap;html=1;aspect=fixed;" parent="1" vertex="1">
          <mxGeometry x="354" y="-20" width="20" height="20" as="geometry" />
        </mxCell>
        <mxCell id="MpyWfBTOZcTDJk8wL0Xl-10" style="edgeStyle=orthogonalEdgeStyle;rounded=0;orthogonalLoop=1;jettySize=auto;html=1;exitX=1;exitY=0.5;exitDx=0;exitDy=0;entryX=0;entryY=0.5;entryDx=0;entryDy=0;" parent="1" source="fPt3tUHfLMFWtH_JmtZv-16" target="Z21iER2l8opAM6BL78H--27" edge="1">
          <mxGeometry relative="1" as="geometry" />
        </mxCell>
        <mxCell id="MpyWfBTOZcTDJk8wL0Xl-11" style="edgeStyle=orthogonalEdgeStyle;rounded=0;orthogonalLoop=1;jettySize=auto;html=1;exitX=0;exitY=0.5;exitDx=0;exitDy=0;entryX=1;entryY=0.5;entryDx=0;entryDy=0;" parent="1" source="fPt3tUHfLMFWtH_JmtZv-16" target="Z21iER2l8opAM6BL78H--28" edge="1">
          <mxGeometry relative="1" as="geometry" />
        </mxCell>
        <mxCell id="fPt3tUHfLMFWtH_JmtZv-16" value="Asociado" style="shape=rhombus;perimeter=rhombusPerimeter;whiteSpace=wrap;html=1;align=center;" parent="1" vertex="1">
          <mxGeometry x="320" y="50" width="120" height="60" as="geometry" />
        </mxCell>
        <mxCell id="fPt3tUHfLMFWtH_JmtZv-27" style="edgeStyle=none;rounded=0;orthogonalLoop=1;jettySize=auto;html=1;exitX=0.5;exitY=1;exitDx=0;exitDy=0;" parent="1" source="Z21iER2l8opAM6BL78H--75" target="Z21iER2l8opAM6BL78H--75" edge="1">
          <mxGeometry relative="1" as="geometry" />
        </mxCell>
        <mxCell id="fPt3tUHfLMFWtH_JmtZv-28" style="edgeStyle=none;rounded=0;orthogonalLoop=1;jettySize=auto;html=1;exitX=0;exitY=1;exitDx=0;exitDy=0;" parent="1" source="Z21iER2l8opAM6BL78H--119" target="Z21iER2l8opAM6BL78H--119" edge="1">
          <mxGeometry relative="1" as="geometry" />
        </mxCell>
        <mxCell id="xkYZZzPmacBvlsSZ-VCV-7" value="(1,1)" style="text;strokeColor=none;fillColor=none;spacingLeft=4;spacingRight=4;overflow=hidden;rotatable=0;points=[[0,0.5],[1,0.5]];portConstraint=eastwest;fontSize=12;whiteSpace=wrap;html=1;" parent="1" vertex="1">
          <mxGeometry x="640" y="330" width="40" height="30" as="geometry" />
        </mxCell>
        <mxCell id="xkYZZzPmacBvlsSZ-VCV-8" value="N:1" style="text;strokeColor=none;fillColor=none;spacingLeft=4;spacingRight=4;overflow=hidden;rotatable=0;points=[[0,0.5],[1,0.5]];portConstraint=eastwest;fontSize=12;whiteSpace=wrap;html=1;" parent="1" vertex="1">
          <mxGeometry x="130" y="255" width="40" height="30" as="geometry" />
        </mxCell>
        <mxCell id="xkYZZzPmacBvlsSZ-VCV-9" value="(1,1)" style="text;strokeColor=none;fillColor=none;spacingLeft=4;spacingRight=4;overflow=hidden;rotatable=0;points=[[0,0.5],[1,0.5]];portConstraint=eastwest;fontSize=12;whiteSpace=wrap;html=1;" parent="1" vertex="1">
          <mxGeometry x="184" y="100" width="40" height="30" as="geometry" />
        </mxCell>
        <mxCell id="xkYZZzPmacBvlsSZ-VCV-10" value="(0,n)" style="text;strokeColor=none;fillColor=none;spacingLeft=4;spacingRight=4;overflow=hidden;rotatable=0;points=[[0,0.5],[1,0.5]];portConstraint=eastwest;fontSize=12;whiteSpace=wrap;html=1;" parent="1" vertex="1">
          <mxGeometry x="210" y="380" width="40" height="30" as="geometry" />
        </mxCell>
        <mxCell id="xkYZZzPmacBvlsSZ-VCV-11" value="(1,1)" style="text;strokeColor=none;fillColor=none;spacingLeft=4;spacingRight=4;overflow=hidden;rotatable=0;points=[[0,0.5],[1,0.5]];portConstraint=eastwest;fontSize=12;whiteSpace=wrap;html=1;" parent="1" vertex="1">
          <mxGeometry y="375" width="40" height="30" as="geometry" />
        </mxCell>
        <mxCell id="xkYZZzPmacBvlsSZ-VCV-12" value="1:1" style="text;strokeColor=none;fillColor=none;spacingLeft=4;spacingRight=4;overflow=hidden;rotatable=0;points=[[0,0.5],[1,0.5]];portConstraint=eastwest;fontSize=12;whiteSpace=wrap;html=1;" parent="1" vertex="1">
          <mxGeometry x="80" y="415" width="40" height="30" as="geometry" />
        </mxCell>
        <mxCell id="xkYZZzPmacBvlsSZ-VCV-15" value="(1,n)" style="text;strokeColor=none;fillColor=none;spacingLeft=4;spacingRight=4;overflow=hidden;rotatable=0;points=[[0,0.5],[1,0.5]];portConstraint=eastwest;fontSize=12;whiteSpace=wrap;html=1;" parent="1" vertex="1">
          <mxGeometry x="324" y="405" width="40" height="30" as="geometry" />
        </mxCell>
        <mxCell id="xkYZZzPmacBvlsSZ-VCV-16" value="1:N" style="text;strokeColor=none;fillColor=none;spacingLeft=4;spacingRight=4;overflow=hidden;rotatable=0;points=[[0,0.5],[1,0.5]];portConstraint=eastwest;fontSize=12;whiteSpace=wrap;html=1;" parent="1" vertex="1">
          <mxGeometry x="520" y="375" width="40" height="30" as="geometry" />
        </mxCell>
        <mxCell id="xkYZZzPmacBvlsSZ-VCV-19" value="(1,n)" style="text;strokeColor=none;fillColor=none;spacingLeft=4;spacingRight=4;overflow=hidden;rotatable=0;points=[[0,0.5],[1,0.5]];portConstraint=eastwest;fontSize=12;whiteSpace=wrap;html=1;" parent="1" vertex="1">
          <mxGeometry x="750" y="310" width="40" height="30" as="geometry" />
        </mxCell>
        <mxCell id="xkYZZzPmacBvlsSZ-VCV-20" value="N:1" style="text;strokeColor=none;fillColor=none;spacingLeft=4;spacingRight=4;overflow=hidden;rotatable=0;points=[[0,0.5],[1,0.5]];portConstraint=eastwest;fontSize=12;whiteSpace=wrap;html=1;" parent="1" vertex="1">
          <mxGeometry x="870" y="220" width="40" height="30" as="geometry" />
        </mxCell>
        <mxCell id="xkYZZzPmacBvlsSZ-VCV-21" value="(1,1)" style="text;strokeColor=none;fillColor=none;spacingLeft=4;spacingRight=4;overflow=hidden;rotatable=0;points=[[0,0.5],[1,0.5]];portConstraint=eastwest;fontSize=12;whiteSpace=wrap;html=1;" parent="1" vertex="1">
          <mxGeometry x="840" y="140" width="40" height="30" as="geometry" />
        </mxCell>
        <mxCell id="xkYZZzPmacBvlsSZ-VCV-22" value="(1,n)" style="text;strokeColor=none;fillColor=none;spacingLeft=4;spacingRight=4;overflow=hidden;rotatable=0;points=[[0,0.5],[1,0.5]];portConstraint=eastwest;fontSize=12;whiteSpace=wrap;html=1;" parent="1" vertex="1">
          <mxGeometry x="570" y="80" width="40" height="30" as="geometry" />
        </mxCell>
        <mxCell id="xkYZZzPmacBvlsSZ-VCV-23" value="N:1" style="text;strokeColor=none;fillColor=none;spacingLeft=4;spacingRight=4;overflow=hidden;rotatable=0;points=[[0,0.5],[1,0.5]];portConstraint=eastwest;fontSize=12;whiteSpace=wrap;html=1;" parent="1" vertex="1">
          <mxGeometry x="710" y="165" width="40" height="30" as="geometry" />
        </mxCell>
        <mxCell id="xkYZZzPmacBvlsSZ-VCV-24" value="(0,1)" style="text;strokeColor=none;fillColor=none;spacingLeft=4;spacingRight=4;overflow=hidden;rotatable=0;points=[[0,0.5],[1,0.5]];portConstraint=eastwest;fontSize=12;whiteSpace=wrap;html=1;" parent="1" vertex="1">
          <mxGeometry x="690" y="310" width="40" height="30" as="geometry" />
        </mxCell>
        <mxCell id="xkYZZzPmacBvlsSZ-VCV-28" value="(1,1)" style="text;strokeColor=none;fillColor=none;spacingLeft=4;spacingRight=4;overflow=hidden;rotatable=0;points=[[0,0.5],[1,0.5]];portConstraint=eastwest;fontSize=12;whiteSpace=wrap;html=1;" parent="1" vertex="1">
          <mxGeometry x="440" y="40" width="40" height="30" as="geometry" />
        </mxCell>
        <mxCell id="xkYZZzPmacBvlsSZ-VCV-29" value="1:N" style="text;strokeColor=none;fillColor=none;spacingLeft=4;spacingRight=4;overflow=hidden;rotatable=0;points=[[0,0.5],[1,0.5]];portConstraint=eastwest;fontSize=12;whiteSpace=wrap;html=1;" parent="1" vertex="1">
          <mxGeometry x="360" y="30" width="40" height="30" as="geometry" />
        </mxCell>
        <mxCell id="xkYZZzPmacBvlsSZ-VCV-30" value="(1,1)" style="text;strokeColor=none;fillColor=none;spacingLeft=4;spacingRight=4;overflow=hidden;rotatable=0;points=[[0,0.5],[1,0.5]];portConstraint=eastwest;fontSize=12;whiteSpace=wrap;html=1;" parent="1" vertex="1">
          <mxGeometry x="294" y="85" width="40" height="30" as="geometry" />
        </mxCell>
        <mxCell id="xkYZZzPmacBvlsSZ-VCV-31" value="(0,n)" style="text;strokeColor=none;fillColor=none;spacingLeft=4;spacingRight=4;overflow=hidden;rotatable=0;points=[[0,0.5],[1,0.5]];portConstraint=eastwest;fontSize=12;whiteSpace=wrap;html=1;" parent="1" vertex="1">
          <mxGeometry x="290" y="40" width="40" height="30" as="geometry" />
        </mxCell>
        <mxCell id="xkYZZzPmacBvlsSZ-VCV-32" value="(0,n)" style="text;strokeColor=none;fillColor=none;spacingLeft=4;spacingRight=4;overflow=hidden;rotatable=0;points=[[0,0.5],[1,0.5]];portConstraint=eastwest;fontSize=12;whiteSpace=wrap;html=1;" parent="1" vertex="1">
          <mxGeometry x="460" y="185" width="40" height="30" as="geometry" />
        </mxCell>
        <mxCell id="xkYZZzPmacBvlsSZ-VCV-33" value="N:1" style="text;strokeColor=none;fillColor=none;spacingLeft=4;spacingRight=4;overflow=hidden;rotatable=0;points=[[0,0.5],[1,0.5]];portConstraint=eastwest;fontSize=12;whiteSpace=wrap;html=1;" parent="1" vertex="1">
          <mxGeometry x="354" y="125" width="40" height="30" as="geometry" />
        </mxCell>
        <mxCell id="xkYZZzPmacBvlsSZ-VCV-37" value="(1,1)" style="text;strokeColor=none;fillColor=none;spacingLeft=4;spacingRight=4;overflow=hidden;rotatable=0;points=[[0,0.5],[1,0.5]];portConstraint=eastwest;fontSize=12;whiteSpace=wrap;html=1;" parent="1" vertex="1">
          <mxGeometry x="194" y="420" width="40" height="30" as="geometry" />
        </mxCell>
        <mxCell id="MpyWfBTOZcTDJk8wL0Xl-14" style="edgeStyle=none;rounded=0;orthogonalLoop=1;jettySize=auto;html=1;exitX=1;exitY=0.5;exitDx=0;exitDy=0;entryX=0.13;entryY=0.984;entryDx=0;entryDy=0;entryPerimeter=0;" parent="1" source="MpyWfBTOZcTDJk8wL0Xl-1" target="Z21iER2l8opAM6BL78H--23" edge="1">
          <mxGeometry relative="1" as="geometry" />
        </mxCell>
        <mxCell id="MpyWfBTOZcTDJk8wL0Xl-1" value="Recibe" style="shape=rhombus;perimeter=rhombusPerimeter;whiteSpace=wrap;html=1;align=center;" parent="1" vertex="1">
          <mxGeometry x="10" y="460" width="120" height="60" as="geometry" />
        </mxCell>
        <mxCell id="MpyWfBTOZcTDJk8wL0Xl-9" value="" style="endArrow=none;html=1;rounded=0;edgeStyle=orthogonalEdgeStyle;curved=1;" parent="1" edge="1">
          <mxGeometry relative="1" as="geometry">
            <mxPoint x="294" as="sourcePoint" />
            <mxPoint x="454" as="targetPoint" />
            <Array as="points">
              <mxPoint x="294" y="20" />
              <mxPoint x="454" y="20" />
            </Array>
          </mxGeometry>
        </mxCell>
        <mxCell id="MpyWfBTOZcTDJk8wL0Xl-18" value="(1,1)" style="text;strokeColor=none;fillColor=none;spacingLeft=4;spacingRight=4;overflow=hidden;rotatable=0;points=[[0,0.5],[1,0.5]];portConstraint=eastwest;fontSize=12;whiteSpace=wrap;html=1;" parent="1" vertex="1">
          <mxGeometry x="-60" y="385" width="40" height="30" as="geometry" />
        </mxCell>
        <mxCell id="MpyWfBTOZcTDJk8wL0Xl-19" value="1:1" style="text;strokeColor=none;fillColor=none;spacingLeft=4;spacingRight=4;overflow=hidden;rotatable=0;points=[[0,0.5],[1,0.5]];portConstraint=eastwest;fontSize=12;whiteSpace=wrap;html=1;" parent="1" vertex="1">
          <mxGeometry x="54" y="525" width="40" height="30" as="geometry" />
        </mxCell>
        <mxCell id="MpyWfBTOZcTDJk8wL0Xl-20" value="(1,1)" style="text;strokeColor=none;fillColor=none;spacingLeft=4;spacingRight=4;overflow=hidden;rotatable=0;points=[[0,0.5],[1,0.5]];portConstraint=eastwest;fontSize=12;whiteSpace=wrap;html=1;" parent="1" vertex="1">
          <mxGeometry x="220" y="445" width="40" height="30" as="geometry" />
        </mxCell>
        <mxCell id="MpyWfBTOZcTDJk8wL0Xl-22" value="(1,n)" style="text;strokeColor=none;fillColor=none;spacingLeft=4;spacingRight=4;overflow=hidden;rotatable=0;points=[[0,0.5],[1,0.5]];portConstraint=eastwest;fontSize=12;whiteSpace=wrap;html=1;" parent="1" vertex="1">
          <mxGeometry x="430" y="240" width="40" height="30" as="geometry" />
        </mxCell>
        <mxCell id="MpyWfBTOZcTDJk8wL0Xl-25" value="N:1" style="text;strokeColor=none;fillColor=none;spacingLeft=4;spacingRight=4;overflow=hidden;rotatable=0;points=[[0,0.5],[1,0.5]];portConstraint=eastwest;fontSize=12;whiteSpace=wrap;html=1;" parent="1" vertex="1">
          <mxGeometry x="354" y="285" width="40" height="30" as="geometry" />
        </mxCell>
        <mxCell id="MpyWfBTOZcTDJk8wL0Xl-26" value="(1,1)" style="text;strokeColor=none;fillColor=none;spacingLeft=4;spacingRight=4;overflow=hidden;rotatable=0;points=[[0,0.5],[1,0.5]];portConstraint=eastwest;fontSize=12;whiteSpace=wrap;html=1;" parent="1" vertex="1">
          <mxGeometry x="274" y="375" width="40" height="30" as="geometry" />
        </mxCell>
        <mxCell id="snlGGpisd2Qgwdy_Ho8H-1" value="DNI" style="ellipse;whiteSpace=wrap;html=1;align=center;fontStyle=4;" parent="1" vertex="1">
          <mxGeometry x="454" y="-120" width="100" height="40" as="geometry" />
        </mxCell>
      </root>
    </mxGraphModel>
  </diagram>
</mxfile>
